<?xml version="1.0" encoding="utf-8"?>
<!-- Generator: Adobe Illustrator 16.0.0, SVG Export Plug-In . SVG Version: 6.00 Build 0)  -->
<!DOCTYPE svg PUBLIC "-//W3C//DTD SVG 1.1//EN" "http://www.w3.org/Graphics/SVG/1.1/DTD/svg11.dtd">
<svg version="1.1" id="Layer_1" xmlns="http://www.w3.org/2000/svg" xmlns:xlink="http://www.w3.org/1999/xlink" x="0px" y="0px"
	 width="100px" height="100px" viewBox="0 0 100 100" enable-background="new 0 0 100 100" xml:space="preserve">
<path fill-rule="evenodd" clip-rule="evenodd" d="M87.919,76.852c-17.11,0-34.221,0-51.331,0c-8.6-0.451-13.738-10.81-9.674-18.36
	c1.93-3.585,5.896-5.229,11.056-5.923c0.772-6.124,3.692-11.109,8.687-13.425c7.814-3.624,17.156-0.091,20.532,5.726
	c9.819-4.713,20.267,1.723,19.546,12.241C97.13,57.13,97.938,75.752,87.919,76.852z"/>
<path fill-rule="evenodd" clip-rule="evenodd" d="M5,62.045c0-0.855,0-1.711,0-2.566c0.842-6.463,4.533-10.077,10.858-11.056
	C14.88,35.805,26.503,27.787,37.97,33.221c3.405-5.555,8.74-10.213,16.781-10.069c10.866,0.195,17.598,7.868,19.15,17.374
	c-2.53,0.036-4.659,0.474-6.317,1.382c-2.452-3.659-6.07-6.408-11.254-6.91c-11.763-1.139-18.967,6.26-20.927,15.399
	c-10.401,0.499-16.249,13.258-10.661,22.507C13.343,74.103,6.463,70.782,5,62.045z"/>
</svg>
