<?xml version="1.0" encoding="utf-8"?>
<!-- Generator: Adobe Illustrator 16.0.0, SVG Export Plug-In . SVG Version: 6.00 Build 0)  -->
<!DOCTYPE svg PUBLIC "-//W3C//DTD SVG 1.1//EN" "http://www.w3.org/Graphics/SVG/1.1/DTD/svg11.dtd">
<svg version="1.1" id="Layer_1" xmlns="http://www.w3.org/2000/svg" xmlns:xlink="http://www.w3.org/1999/xlink" x="0px" y="0px"
	 width="100px" height="100px" viewBox="0 0 100 100" enable-background="new 0 0 100 100" xml:space="preserve">
<path d="M85.781,51.053c-0.498-18.975-16.498-34.213-36.2-34.213c-3.74,0-7.349,0.552-10.742,1.572
	c-3.596-3.389-8.459-5.493-13.84-5.493C13.955,12.917,5,21.688,5,32.502c0,6.616,3.376,12.446,8.513,15.991
	c-0.115,1.138-0.181,2.295-0.181,3.467c0,19.398,16.23,35.121,36.249,35.121c5.265,0,10.249-1.109,14.767-3.066
	c3.086,1.918,6.723,3.066,10.652,3.066c11.045,0,20-8.77,20-19.58C95,60.584,91.312,54.533,85.781,51.053z M66.689,68.773
	c-1.483,2.295-3.653,4.092-6.512,5.391c-2.857,1.299-6.244,1.949-10.163,1.949c-4.698,0-8.572-0.889-11.625-2.664
	c-2.165-1.275-3.924-2.98-5.277-5.113s-2.029-4.205-2.029-6.219c0-1.168,0.406-2.17,1.218-3.004c0.812-0.832,1.845-1.25,3.101-1.25
	c1.017,0,1.877,0.326,2.581,0.975c0.704,0.65,1.304,1.613,1.802,2.891c0.606,1.516,1.261,2.781,1.964,3.799s1.694,1.855,2.971,2.516
	c1.277,0.662,2.955,0.99,5.033,0.99c2.857,0,5.18-0.664,6.964-1.996c1.786-1.332,2.679-2.992,2.679-4.982
	c0-1.58-0.48-2.863-1.443-3.85c-0.964-0.982-2.208-1.736-3.734-2.256c-1.525-0.52-3.566-1.072-6.121-1.656
	c-3.42-0.801-6.283-1.736-8.588-2.809c-2.306-1.072-4.135-2.533-5.488-4.384s-2.029-4.151-2.029-6.9
	c0-2.619,0.714-4.946,2.143-6.981c1.429-2.034,3.496-3.599,6.202-4.692c2.706-1.093,5.888-1.64,9.546-1.64
	c2.923,0,5.449,0.363,7.582,1.088c2.132,0.725,3.901,1.688,5.31,2.89c1.406,1.202,2.436,2.463,3.084,3.783
	c0.649,1.321,0.976,2.609,0.976,3.864c0,1.147-0.405,2.181-1.218,3.101c-0.812,0.92-1.824,1.38-3.036,1.38
	c-1.104,0-1.942-0.276-2.517-0.828c-0.574-0.552-1.196-1.456-1.867-2.711c-0.866-1.796-1.905-3.198-3.117-4.205
	s-3.16-1.51-5.844-1.51c-2.49,0-4.498,0.547-6.023,1.64c-1.526,1.093-2.289,2.408-2.289,3.945c0,0.953,0.26,1.775,0.779,2.468
	c0.52,0.693,1.234,1.288,2.143,1.786c0.909,0.498,1.829,0.888,2.76,1.169c0.931,0.281,2.468,0.693,4.61,1.234
	c2.685,0.628,5.114,1.32,7.29,2.078c2.176,0.758,4.026,1.678,5.553,2.761c1.526,1.082,2.717,2.451,3.571,4.107
	s1.283,3.686,1.283,6.088C68.914,63.893,68.172,66.48,66.689,68.773z"/>
</svg>
