<?xml version="1.0" encoding="utf-8"?>
<!-- Generator: Adobe Illustrator 16.0.0, SVG Export Plug-In . SVG Version: 6.00 Build 0)  -->
<!DOCTYPE svg PUBLIC "-//W3C//DTD SVG 1.1//EN" "http://www.w3.org/Graphics/SVG/1.1/DTD/svg11.dtd">
<svg version="1.1" id="Layer_1" xmlns="http://www.w3.org/2000/svg" xmlns:xlink="http://www.w3.org/1999/xlink" x="0px" y="0px"
	 width="100px" height="100px" viewBox="0 0 100 100" enable-background="new 0 0 100 100" xml:space="preserve">
<path d="M32.122,18.624c3.283-0.128,6.57-0.139,9.855-0.207c0.105-0.002,0.21-0.055,0.314-0.084c0.558,0,1.116,0,1.674,0
	c0.789,0.024,1.578,0.048,2.368,0.073c2.444,0,4.89,0,7.334,0c0.789-0.024,1.578-0.049,2.367-0.073c0.558,0,1.115,0,1.674,0
	c0.134,0.029,0.268,0.082,0.402,0.084c1.305,0.03,2.611,0.039,3.916,0.079c4.662,0.141,9.326,0.25,13.985,0.456
	c2.664,0.119,5.346,0.244,7.975,0.652c3.617,0.562,6.43,2.476,8.127,5.806c1.041,2.042,1.666,4.239,1.959,6.501
	c0.559,4.324,0.878,8.672,0.901,13.033c0.035,6.587,0.133,13.178-0.522,19.749c-0.259,2.604-0.59,5.18-1.417,7.681
	c-0.948,2.871-2.567,5.178-5.242,6.688c-1.874,1.058-3.912,1.505-6.022,1.619c-4.863,0.264-9.727,0.51-14.593,0.696
	c-3.283,0.126-6.571,0.139-9.856,0.207c-0.106,0.002-0.212,0.055-0.317,0.084c-0.528,0-1.057,0-1.585,0
	c-0.731-0.022-1.462-0.046-2.192-0.068c-2.271-0.002-4.54-0.005-6.811-0.007c-3.125-0.048-6.25-0.065-9.373-0.151
	c-4.926-0.136-9.852-0.297-14.775-0.487c-2.39-0.092-4.776-0.323-7.106-0.886c-3.232-0.781-5.807-2.48-7.307-5.556
	c-0.992-2.033-1.632-4.189-1.922-6.421C5.371,63.77,5.05,59.421,5.026,55.062C4.99,48.46,4.894,41.856,5.548,35.271
	c0.265-2.662,0.605-5.295,1.481-7.843c0.861-2.506,2.229-4.6,4.472-6.083c1.941-1.284,4.1-1.889,6.385-2.02 M61.93,50.645
	c0.987-0.506,1.974-1.011,3.051-1.563c-0.29-0.155-0.491-0.264-0.693-0.369c-6.189-3.23-12.377-6.462-18.569-9.689
	c-1.429-0.745-2.867-1.474-4.301-2.21c-0.208-0.115-0.417-0.231-0.651-0.36c0,8.422,0,16.767,0,25.161
	c0.211-0.104,0.369-0.178,0.524-0.259c4.02-2.082,8.041-4.164,12.061-6.249C56.212,53.621,59.07,52.131,61.93,50.645z"/>
<path fill-rule="evenodd" clip-rule="evenodd" fill="#BFBFBF" d="M61.93,50.645c-0.182-0.146-0.354-0.306-0.548-0.436
	c-6.461-4.312-12.924-8.621-19.385-12.934c-0.205-0.137-0.387-0.308-0.58-0.463c1.434,0.736,2.872,1.465,4.301,2.21
	c6.192,3.227,12.379,6.458,18.569,9.689c0.202,0.105,0.403,0.214,0.693,0.369C63.903,49.633,62.917,50.139,61.93,50.645z"/>
</svg>
